<?xml version="1.0" encoding="UTF-8" standalone="no"?>
<!-- Created with Inkscape (http://www.inkscape.org/) -->

<svg
   xmlns:dc="http://purl.org/dc/elements/1.1/"
   xmlns:cc="http://creativecommons.org/ns#"
   xmlns:rdf="http://www.w3.org/1999/02/22-rdf-syntax-ns#"
   xmlns:svg="http://www.w3.org/2000/svg"
   xmlns="http://www.w3.org/2000/svg"
   xmlns:sodipodi="http://sodipodi.sourceforge.net/DTD/sodipodi-0.dtd"
   xmlns:inkscape="http://www.inkscape.org/namespaces/inkscape"
   width="210mm"
   height="297mm"
   viewBox="0 0 744.09448819 1052.3622047"
   id="svg6388"
   version="1.1"
   inkscape:version="0.91 r13725"
   sodipodi:docname="credits.svg"
   inkscape:export-filename="C:\Users\dante\g7039.png"
   inkscape:export-xdpi="237.28297"
   inkscape:export-ydpi="237.28297">
  <defs
     id="defs6390" />
  <sodipodi:namedview
     id="base"
     pagecolor="#ffffff"
     bordercolor="#666666"
     borderopacity="1.0"
     inkscape:pageopacity="0.0"
     inkscape:pageshadow="2"
     inkscape:zoom="0.7"
     inkscape:cx="92.952344"
     inkscape:cy="458.12401"
     inkscape:document-units="px"
     inkscape:current-layer="layer1"
     showgrid="false"
     inkscape:window-width="1920"
     inkscape:window-height="1017"
     inkscape:window-x="-8"
     inkscape:window-y="-8"
     inkscape:window-maximized="1" />
  <metadata
     id="metadata6393">
    <rdf:RDF>
      <cc:Work
         rdf:about="">
        <dc:format>image/svg+xml</dc:format>
        <dc:type
           rdf:resource="http://purl.org/dc/dcmitype/StillImage" />
        <dc:title></dc:title>
      </cc:Work>
    </rdf:RDF>
  </metadata>
  <g
     inkscape:label="Ebene 1"
     inkscape:groupmode="layer"
     id="layer1">
    <path
       style="fill:#ffffff;fill-opacity:1;fill-rule:nonzero;stroke:#000000;stroke-width:8;stroke-miterlimit:3.8;stroke-dasharray:none;stroke-opacity:1"
       d="M 138.05664 362.39453 A 85.714287 85.714287 0 0 0 70.052734 392.98047 A 85.714287 85.714287 0 0 0 70.052734 503.17188 A 85.714287 85.714287 0 0 0 178.57227 522.30664 L 167.10547 502.44336 A 62.857136 62.857136 0 0 1 135.71484 510.93359 A 62.857136 62.857136 0 0 1 72.857422 448.07617 A 62.857136 62.857136 0 0 1 135.71484 385.21875 A 62.857136 62.857136 0 0 1 167.11523 393.68945 L 178.57227 373.8457 A 85.714287 85.714287 0 0 0 138.05664 362.39453 z "
       id="path6936" />
    <g
       id="g7014">
      <g
         id="g7039"
         transform="matrix(0.8660254,0.5,-0.5,0.8660254,83.198245,-140.85191)">
        <path
           sodipodi:nodetypes="ccccc"
           inkscape:connector-curvature="0"
           id="rect6943-6-3-7"
           d="m 236.78201,459.29028 105.71429,0 0,17.84228 -105.71428,0 z"
           style="fill:#ffffff;fill-opacity:1;fill-rule:nonzero;stroke:#000000;stroke-width:8;stroke-miterlimit:4;stroke-dasharray:none;stroke-opacity:1" />
        <path
           sodipodi:nodetypes="ccccc"
           inkscape:connector-curvature="0"
           id="rect6943-6-3-7-5"
           d="m 236.78201,494.42316 105.71429,0 0,17.84228 -105.71428,0 z"
           style="fill:#ffffff;fill-opacity:1;fill-rule:nonzero;stroke:#000000;stroke-width:8;stroke-miterlimit:4;stroke-dasharray:none;stroke-opacity:1" />
      </g>
    </g>
  </g>
</svg>
