<?xml version="1.0" encoding="UTF-8" standalone="no"?>
<!-- Created with Inkscape (http://www.inkscape.org/) -->

<svg
   xmlns:dc="http://purl.org/dc/elements/1.1/"
   xmlns:cc="http://creativecommons.org/ns#"
   xmlns:rdf="http://www.w3.org/1999/02/22-rdf-syntax-ns#"
   xmlns:svg="http://www.w3.org/2000/svg"
   xmlns="http://www.w3.org/2000/svg"
   xmlns:sodipodi="http://sodipodi.sourceforge.net/DTD/sodipodi-0.dtd"
   xmlns:inkscape="http://www.inkscape.org/namespaces/inkscape"
   width="210mm"
   height="297mm"
   viewBox="0 0 744.09448819 1052.3622047"
   id="svg2"
   version="1.1"
   inkscape:version="0.91 r13725"
   sodipodi:docname="Swallow.svg">
  <sodipodi:namedview
     id="base"
     pagecolor="#ffffff"
     bordercolor="#666666"
     borderopacity="1.0"
     inkscape:pageopacity="0.0"
     inkscape:pageshadow="2"
     inkscape:zoom="0.7"
     inkscape:cx="-114.15308"
     inkscape:cy="727.33402"
     inkscape:document-units="px"
     inkscape:current-layer="layer1"
     showgrid="false"
     inkscape:window-width="1920"
     inkscape:window-height="1017"
     inkscape:window-x="-8"
     inkscape:window-y="-8"
     inkscape:window-maximized="1" />
  <defs
     id="defs4" />
  <metadata
     id="metadata7">
    <rdf:RDF>
      <cc:Work
         rdf:about="">
        <dc:format>image/svg+xml</dc:format>
        <dc:type
           rdf:resource="http://purl.org/dc/dcmitype/StillImage" />
        <dc:title></dc:title>
      </cc:Work>
    </rdf:RDF>
  </metadata>
  <g
     id="layer1"
     inkscape:groupmode="layer"
     inkscape:label="Ebene 1">
    <path
       sodipodi:nodetypes="ccccccc"
       inkscape:connector-curvature="0"
       id="rect4142"
       d="m 117.14286,366.6479 194.28573,4.28572 4.28571,84.28573 -249.33445,31.90131 -135.15716,59.33113 84.491597,-94.08958 z"
       style="fill:#656565;fill-opacity:1;stroke:none;stroke-width:1.875;stroke-miterlimit:4;stroke-dasharray:none;stroke-opacity:1" />
    <path
       sodipodi:nodetypes="ccccccc"
       inkscape:connector-curvature="0"
       id="rect4142-9"
       d="m 533.46849,365.3174 -194.28573,4.28572 -4.28571,84.28573 249.33445,31.90131 135.15716,59.33113 -84.4916,-94.08958 z"
       style="fill:#656565;fill-opacity:1;stroke:#000000;stroke-width:1.875;stroke-miterlimit:4;stroke-dasharray:none;stroke-opacity:1" />
    <path
       sodipodi:nodetypes="ccccc"
       inkscape:connector-curvature="0"
       id="rect4163"
       d="m 313.8771,164.50507 22.85714,0 22.85715,135 -68.57144,0 z"
       style="fill:#656565;fill-opacity:1;stroke:#000000;stroke-width:1.875;stroke-miterlimit:4;stroke-dasharray:none;stroke-opacity:1" />
    <rect
       y="488.07648"
       x="298.87711"
       height="21.428572"
       width="52.857143"
       id="rect4166"
       style="fill:#656565;fill-opacity:1;stroke:#000000;stroke-width:1.875;stroke-miterlimit:4;stroke-dasharray:none;stroke-opacity:1" />
    <path
       sodipodi:nodetypes="ccccc"
       inkscape:connector-curvature="0"
       id="rect4168"
       d="m 289.59138,506.64795 71.42858,0 11,61.42857 -93.42858,0 z"
       style="fill:#656565;fill-opacity:1;stroke:#000000;stroke-width:1.875;stroke-miterlimit:4;stroke-dasharray:none;stroke-opacity:1" />
    <rect
       y="565.21936"
       x="273.87711"
       height="21.428572"
       width="102.85714"
       id="rect4170"
       style="fill:#656565;fill-opacity:1;stroke:#000000;stroke-width:1.875;stroke-miterlimit:4;stroke-dasharray:none;stroke-opacity:1" />
    <g
       id="g5385">
      <path
         id="path5387"
         d="M117.14286 366.6479C117.14286 366.6479 311.42859 370.93362 311.42859 370.93362C311.42859 370.93362 315.7143 455.21935 315.7143 455.21935C315.7143 455.21935 66.37985 487.12066 66.37985 487.12066C66.37985 487.12066 -68.77731 546.45179 -68.77731 546.45179C-68.77731 546.45179 15.714287 452.36221 15.714287 452.36221C15.714287 452.36221 117.14286 366.6479 117.14286 366.6479"
         style="opacity:1.0;stroke-opacity:1;fill-opacity:1.0;stroke:none;stroke-dasharray:none;stroke-miterlimit:4;stroke-width:1.875;fill:#656565" />
      <path
         id="path5389"
         d="M117.227501818 367.735167273C117.227501818 367.735167273 311.513231818 371.974970909 311.513231818 371.974970909C311.513231818 371.974970909 315.798941818 454.102648182 315.798941818 454.102648182C315.798941818 454.102648182 66.464492 486.003958182 66.464492 486.003958182C66.464492 486.003958182 -68.692668 546.391156364 -68.692668 546.391156364C-68.692668 546.391156364 15.798929 453.311729091 15.798929 453.311729091C15.798929 453.311729091 117.227501818 367.735167273 117.227501818 367.735167273"
         style="opacity:1.0;stroke-opacity:1;fill-opacity:1.0;stroke:none;stroke-dasharray:none;stroke-miterlimit:4;stroke-width:1.875;fill:#6a6a6a" />
      <path
         id="path5391"
         d="M117.312143636 368.822434545C117.312143636 368.822434545 311.597873636 373.016321818 311.597873636 373.016321818C311.597873636 373.016321818 315.883583636 452.985946364 315.883583636 452.985946364C315.883583636 452.985946364 66.549134 484.887256364 66.549134 484.887256364C66.549134 484.887256364 -68.608026 546.330522727 -68.608026 546.330522727C-68.608026 546.330522727 15.883571 454.261248182 15.883571 454.261248182C15.883571 454.261248182 117.312143636 368.822434545 117.312143636 368.822434545"
         style="opacity:1.0;stroke-opacity:1;fill-opacity:1.0;stroke:none;stroke-dasharray:none;stroke-miterlimit:4;stroke-width:1.875;fill:#707070" />
      <path
         id="path5393"
         d="M117.396785455 369.909701818C117.396785455 369.909701818 311.682515455 374.057672727 311.682515455 374.057672727C311.682515455 374.057672727 315.968225455 451.869244545 315.968225455 451.869244545C315.968225455 451.869244545 66.633776 483.770554545 66.633776 483.770554545C66.633776 483.770554545 -68.523384 546.269889091 -68.523384 546.269889091C-68.523384 546.269889091 15.968213 455.210767273 15.968213 455.210767273C15.968213 455.210767273 117.396785455 369.909701818 117.396785455 369.909701818"
         style="opacity:1.0;stroke-opacity:1;fill-opacity:1.0;stroke:none;stroke-dasharray:none;stroke-miterlimit:4;stroke-width:1.875;fill:#767676" />
      <path
         id="path5395"
         d="M117.481427273 370.996969091C117.481427273 370.996969091 311.767157273 375.099023636 311.767157273 375.099023636C311.767157273 375.099023636 316.052867273 450.752542727 316.052867273 450.752542727C316.052867273 450.752542727 66.718418 482.653852727 66.718418 482.653852727C66.718418 482.653852727 -68.438742 546.209255455 -68.438742 546.209255455C-68.438742 546.209255455 16.052855 456.160286364 16.052855 456.160286364C16.052855 456.160286364 117.481427273 370.996969091 117.481427273 370.996969091"
         style="opacity:1.0;stroke-opacity:1;fill-opacity:1.0;stroke:none;stroke-dasharray:none;stroke-miterlimit:4;stroke-width:1.875;fill:#7b7b7b" />
      <path
         id="path5397"
         d="M117.566069091 372.084236364C117.566069091 372.084236364 311.851799091 376.140374545 311.851799091 376.140374545C311.851799091 376.140374545 316.137509091 449.635840909 316.137509091 449.635840909C316.137509091 449.635840909 66.80306 481.537150909 66.80306 481.537150909C66.80306 481.537150909 -68.3541 546.148621818 -68.3541 546.148621818C-68.3541 546.148621818 16.137497 457.109805455 16.137497 457.109805455C16.137497 457.109805455 117.566069091 372.084236364 117.566069091 372.084236364"
         style="opacity:1.0;stroke-opacity:1;fill-opacity:1.0;stroke:none;stroke-dasharray:none;stroke-miterlimit:4;stroke-width:1.875;fill:#818181" />
      <path
         id="path5399"
         d="M117.650710909 373.171503636C117.650710909 373.171503636 311.936440909 377.181725455 311.936440909 377.181725455C311.936440909 377.181725455 316.222150909 448.519139091 316.222150909 448.519139091C316.222150909 448.519139091 66.887702 480.420449091 66.887702 480.420449091C66.887702 480.420449091 -68.269458 546.087988182 -68.269458 546.087988182C-68.269458 546.087988182 16.222139 458.059324545 16.222139 458.059324545C16.222139 458.059324545 117.650710909 373.171503636 117.650710909 373.171503636"
         style="opacity:1.0;stroke-opacity:1;fill-opacity:1.0;stroke:none;stroke-dasharray:none;stroke-miterlimit:4;stroke-width:1.875;fill:#878787" />
      <path
         id="path5401"
         d="M117.735352727 374.258770909C117.735352727 374.258770909 312.021082727 378.223076364 312.021082727 378.223076364C312.021082727 378.223076364 316.306792727 447.402437273 316.306792727 447.402437273C316.306792727 447.402437273 66.972344 479.303747273 66.972344 479.303747273C66.972344 479.303747273 -68.184816 546.027354545 -68.184816 546.027354545C-68.184816 546.027354545 16.306781 459.008843636 16.306781 459.008843636C16.306781 459.008843636 117.735352727 374.258770909 117.735352727 374.258770909"
         style="opacity:1.0;stroke-opacity:1;fill-opacity:1.0;stroke:none;stroke-dasharray:none;stroke-miterlimit:4;stroke-width:1.875;fill:#8d8d8d" />
      <path
         id="path5403"
         d="M117.819994545 375.346038182C117.819994545 375.346038182 312.105724545 379.264427273 312.105724545 379.264427273C312.105724545 379.264427273 316.391434545 446.285735455 316.391434545 446.285735455C316.391434545 446.285735455 67.056986 478.187045455 67.056986 478.187045455C67.056986 478.187045455 -68.100174 545.966720909 -68.100174 545.966720909C-68.100174 545.966720909 16.391423 459.958362727 16.391423 459.958362727C16.391423 459.958362727 117.819994545 375.346038182 117.819994545 375.346038182"
         style="opacity:1.0;stroke-opacity:1;fill-opacity:1.0;stroke:none;stroke-dasharray:none;stroke-miterlimit:4;stroke-width:1.875;fill:#929292" />
      <path
         id="path5405"
         d="M117.904636364 376.433305455C117.904636364 376.433305455 312.190366364 380.305778182 312.190366364 380.305778182C312.190366364 380.305778182 316.476076364 445.169033636 316.476076364 445.169033636C316.476076364 445.169033636 67.141628 477.070343636 67.141628 477.070343636C67.141628 477.070343636 -68.015532 545.906087273 -68.015532 545.906087273C-68.015532 545.906087273 16.476065 460.907881818 16.476065 460.907881818C16.476065 460.907881818 117.904636364 376.433305455 117.904636364 376.433305455"
         style="opacity:1.0;stroke-opacity:1;fill-opacity:1.0;stroke:none;stroke-dasharray:none;stroke-miterlimit:4;stroke-width:1.875;fill:#989898" />
      <path
         id="path5407"
         d="M117.989278182 377.520572727C117.989278182 377.520572727 312.275008182 381.347129091 312.275008182 381.347129091C312.275008182 381.347129091 316.560718182 444.052331818 316.560718182 444.052331818C316.560718182 444.052331818 67.22627 475.953641818 67.22627 475.953641818C67.22627 475.953641818 -67.93089 545.845453636 -67.93089 545.845453636C-67.93089 545.845453636 16.560707 461.857400909 16.560707 461.857400909C16.560707 461.857400909 117.989278182 377.520572727 117.989278182 377.520572727"
         style="opacity:1.0;stroke-opacity:1;fill-opacity:1.0;stroke:none;stroke-dasharray:none;stroke-miterlimit:4;stroke-width:1.875;fill:#9e9e9e" />
      <path
         id="path5409"
         d="M118.07392 378.60784C118.07392 378.60784 312.35965 382.38848 312.35965 382.38848C312.35965 382.38848 316.64536 442.93563 316.64536 442.93563C316.64536 442.93563 67.310912 474.83694 67.310912 474.83694C67.310912 474.83694 -67.846248 545.78482 -67.846248 545.78482C-67.846248 545.78482 16.645349 462.80692 16.645349 462.80692C16.645349 462.80692 118.07392 378.60784 118.07392 378.60784"
         style="opacity:1.0;stroke-opacity:1;fill-opacity:1.0;stroke:none;stroke-dasharray:none;stroke-miterlimit:4;stroke-width:1.875;fill:#a4a4a4" />
    </g>
    <path
       sodipodi:nodetypes="ccccccc"
       inkscape:connector-curvature="0"
       id="rect4142-6"
       d="m 118.07392,378.60784 194.28573,3.78064 4.28571,60.54715 -249.334448,31.90131 -135.15716,70.94788 84.491597,-82.9779 z"
       style="fill:#a4a4a4;fill-opacity:1;stroke:none;stroke-width:1.875;stroke-miterlimit:4;stroke-dasharray:none;stroke-opacity:1" />
    <path
       style="fill:none;fill-rule:evenodd;stroke:#cbcbcb;stroke-width:1px;stroke-linecap:butt;stroke-linejoin:miter;stroke-opacity:1"
       d="m 11.448969,511.01635 0,-25.03962 55.168265,-31.85141 152.381136,0 -0.18312,13.34305"
       id="path5435-8"
       inkscape:connector-curvature="0"
       sodipodi:nodetypes="ccccc" />
    <path
       style="fill:none;fill-rule:evenodd;stroke:#5d5d5d;stroke-width:1px;stroke-linecap:butt;stroke-linejoin:miter;stroke-opacity:1"
       d="m 10.714286,511.6479 0,-26.42858 55.168265,-31.85141 152.373529,0 -0.11236,14.20527"
       id="path5435"
       inkscape:connector-curvature="0"
       sodipodi:nodetypes="ccccc" />
    <path
       sodipodi:nodetypes="ccccc"
       inkscape:connector-curvature="0"
       id="rect4136"
       d="m 276.73424,296.64792 95.71429,0 1.42858,198.57141 -97.14287,0 z"
       style="fill:#656565;fill-opacity:1;stroke:none;stroke-width:1.875;stroke-miterlimit:4;stroke-dasharray:none;stroke-opacity:1" />
    <path
       style="fill:#6f85d9;fill-opacity:0.47945204;stroke:none;stroke-width:1;stroke-miterlimit:4;stroke-dasharray:none;stroke-opacity:1"
       d="m 254.58472,369.73368 9.57016,0.25255 0,50.02049 -157.85884,0 0,-9.26831 148.28868,0 z"
       id="rect5458"
       inkscape:connector-curvature="0"
       sodipodi:nodetypes="ccccccc" />
    <path
       style="fill:#6f85d9;fill-opacity:0.47945204;stroke:none;stroke-width:1;stroke-miterlimit:4;stroke-dasharray:none;stroke-opacity:1"
       d="m 236.10101,369.2168 9.57016,0.25255 0,31.98478 -139.37513,0 0,-9.26831 129.80497,0 z"
       id="rect5458-5"
       inkscape:connector-curvature="0"
       sodipodi:nodetypes="ccccccc" />
    <circle
       style="fill:none;fill-opacity:1;stroke:#5d5d5d;stroke-width:1;stroke-miterlimit:4;stroke-dasharray:none;stroke-opacity:1"
       id="path5476-4"
       cx="204.36705"
       cy="437.27292"
       r="9.9107141" />
    <circle
       style="fill:none;fill-opacity:1;stroke:#5d5d5d;stroke-width:1;stroke-miterlimit:4;stroke-dasharray:none;stroke-opacity:1"
       id="path5476-4-6"
       cx="162.76572"
       cy="436.67422"
       r="9.9107141" />
    <circle
       style="fill:none;fill-opacity:1;stroke:#5d5d5d;stroke-width:1;stroke-miterlimit:4;stroke-dasharray:none;stroke-opacity:1"
       id="path5476-4-1"
       cx="121.16447"
       cy="436.92676"
       r="9.9107141" />
    <path
       sodipodi:nodetypes="ccccc"
       inkscape:connector-curvature="0"
       id="rect4136-4"
       d="m 288.29361,307.2705 72.43829,0 1.08118,173.32277 -73.51947,0 z"
       style="fill:#a4a4a4;fill-opacity:1;stroke:none;stroke-width:1.76023853;stroke-miterlimit:4;stroke-dasharray:none;stroke-opacity:1" />
    <g
       id="g9018">
      <path
         id="path9020"
         d="M276.73424 296.64792C276.73424 296.64792 339.707211459 296.64792 363.495036189 296.64792C369.034102641 296.64792 372.44853 296.64792 372.44853 296.64792C372.44853 296.64792 373.87711 495.21933 373.87711 495.21933C373.87711 495.21933 373.854852601 495.21933 373.811011611 495.21933C371.503415609 495.21933 309.398385195 495.21933 285.755390873 495.21933C280.172527906 495.21933 276.73424 495.21933 276.73424 495.21933C276.73424 495.21933 276.73424 296.64792 276.73424 296.64792"
         style="opacity:1.0;stroke-opacity:1;fill-opacity:1.0;stroke:none;stroke-dasharray:none;stroke-miterlimit:4;stroke-width:1.875;fill:#656565" />
      <path
         id="path9022"
         d="M277.785091818 297.613609091C277.785091818 297.613609091 341.618546781 297.613609091 363.24384199 297.613609091C368.279356947 297.613609091 371.38492359 297.860768854 371.387620938 298.293177756C371.406237238 301.277536164 372.778606793 493.605427359 372.780348584 493.884651875C372.780369455 493.88799774 372.760146001 493.889688182 372.720290555 493.889688182C370.622476008 493.889688182 307.479769268 493.889688182 285.986138066 493.889688182C280.910808096 493.889688182 277.785091818 493.64059749 277.785091818 493.205053659C277.785091818 490.17654403 277.785091818 297.613609091 277.785091818 297.613609091"
         style="opacity:1.0;stroke-opacity:1;fill-opacity:1.0;stroke:none;stroke-dasharray:none;stroke-miterlimit:4;stroke-width:1.875;fill:#6a6a6a" />
      <path
         id="path9024"
         d="M278.835943636 298.579298182C278.835943636 298.579298182 343.529882103 298.579298182 362.992647791 298.579298182C367.524611252 298.579298182 370.32131718 299.073617708 370.326711877 299.938435512C370.363944476 305.907152328 371.680103586 491.991524718 371.683587167 492.54997375C371.68362891 492.55666548 371.665439401 492.560046364 371.6295695 492.560046364C369.741536407 492.560046364 305.561153341 492.560046364 286.216885259 492.560046364C281.649088286 492.560046364 278.835943636 492.061864981 278.835943636 491.190777319C278.835943636 485.13375806 278.835943636 298.579298182 278.835943636 298.579298182"
         style="opacity:1.0;stroke-opacity:1;fill-opacity:1.0;stroke:none;stroke-dasharray:none;stroke-miterlimit:4;stroke-width:1.875;fill:#707070" />
      <path
         id="path9026"
         d="M279.886795455 299.544987273C279.886795455 299.544987273 345.441217425 299.544987273 362.741453592 299.544987273C366.769865557 299.544987273 369.257710771 300.286466562 369.265802815 301.583693268C369.321651714 310.536768491 370.58160038 490.377622077 370.586825751 491.215295625C370.586888365 491.22533322 370.570732801 491.230404545 370.538848444 491.230404545C368.860596806 491.230404545 303.642537415 491.230404545 286.447632453 491.230404545C282.387368477 491.230404545 279.886795455 490.483132471 279.886795455 489.176500978C279.886795455 480.09097209 279.886795455 299.544987273 279.886795455 299.544987273"
         style="opacity:1.0;stroke-opacity:1;fill-opacity:1.0;stroke:none;stroke-dasharray:none;stroke-miterlimit:4;stroke-width:1.875;fill:#767676" />
      <path
         id="path9028"
         d="M280.937647273 300.510676364C280.937647273 300.510676364 347.352552747 300.510676364 362.490259393 300.510676364C366.015119863 300.510676364 368.194104361 301.499315416 368.204893753 303.228951024C368.279358952 315.166384655 369.483097173 488.763719436 369.490064335 489.880617499C369.49014782 489.89400096 369.476026201 489.900762727 369.448127389 489.900762727C367.979657206 489.900762727 301.723921488 489.900762727 286.678379646 489.900762727C283.125648667 489.900762727 280.937647273 488.904399961 280.937647273 487.162224637C280.937647273 475.04818612 280.937647273 300.510676364 280.937647273 300.510676364"
         style="opacity:1.0;stroke-opacity:1;fill-opacity:1.0;stroke:none;stroke-dasharray:none;stroke-miterlimit:4;stroke-width:1.875;fill:#7b7b7b" />
      <path
         id="path9030"
         d="M281.988499091 301.476365455C281.988499091 301.476365455 349.263888069 301.476365455 362.239065194 301.476365455C365.260374168 301.476365455 367.130497951 302.71216427 367.143984692 304.87420878C367.23706619 319.796000819 368.384593966 487.149816796 368.393302919 488.545939374C368.393407275 488.5626687 368.3813196 488.571120909 368.357406333 488.571120909C367.098717605 488.571120909 299.805305561 488.571120909 286.90912684 488.571120909C283.863928858 488.571120909 281.988499091 487.325667452 281.988499091 485.147948296C281.988499091 470.00540015 281.988499091 301.476365455 281.988499091 301.476365455"
         style="opacity:1.0;stroke-opacity:1;fill-opacity:1.0;stroke:none;stroke-dasharray:none;stroke-miterlimit:4;stroke-width:1.875;fill:#818181" />
      <path
         id="path9032"
         d="M283.039350909 302.442054545C283.039350909 302.442054545 351.175223391 302.442054545 361.987870995 302.442054545C364.505628473 302.442054545 366.066891541 303.925013124 366.08307563 306.519466536C366.194773428 324.425616983 367.286090759 485.535914155 367.296541502 487.211261249C367.296666731 487.23133644 367.286613 487.241479091 367.266685278 487.241479091C366.217778004 487.241479091 297.886689634 487.241479091 287.139874033 487.241479091C284.602209048 487.241479091 283.039350909 485.746934942 283.039350909 483.133671956C283.039350909 464.96261418 283.039350909 302.442054545 283.039350909 302.442054545"
         style="opacity:1.0;stroke-opacity:1;fill-opacity:1.0;stroke:none;stroke-dasharray:none;stroke-miterlimit:4;stroke-width:1.875;fill:#878787" />
      <path
         id="path9034"
         d="M284.090202727 303.407743636C284.090202727 303.407743636 353.086558713 303.407743636 361.736676796 303.407743636C363.750882779 303.407743636 365.003285131 305.137861978 365.022166568 308.164724292C365.152480666 329.055233146 366.187587552 483.922011514 366.199780086 485.876583124C366.199926186 485.90000418 366.1919064 485.911837273 366.175964222 485.911837273C365.336838403 485.911837273 295.968073707 485.911837273 287.370621226 485.911837273C285.340489238 485.911837273 284.090202727 484.168202433 284.090202727 481.119395615C284.090202727 459.91982821 284.090202727 303.407743636 284.090202727 303.407743636"
         style="opacity:1.0;stroke-opacity:1;fill-opacity:1.0;stroke:none;stroke-dasharray:none;stroke-miterlimit:4;stroke-width:1.875;fill:#8d8d8d" />
      <path
         id="path9036"
         d="M285.141054545 304.373432727C285.141054545 304.373432727 354.997894034 304.373432727 361.485482597 304.373432727C362.996137084 304.373432727 363.939678721 306.350710832 363.961257507 309.809982048C364.110187904 333.68484931 365.089084346 482.308108873 365.10301867 484.541904999C365.103185641 484.56867192 365.0971998 484.582195455 365.085243167 484.582195455C364.455898802 484.582195455 294.04945778 484.582195455 287.60136842 484.582195455C286.078769429 484.582195455 285.141054545 482.589469923 285.141054545 479.105119274C285.141054545 454.87704224 285.141054545 304.373432727 285.141054545 304.373432727"
         style="opacity:1.0;stroke-opacity:1;fill-opacity:1.0;stroke:none;stroke-dasharray:none;stroke-miterlimit:4;stroke-width:1.875;fill:#929292" />
      <path
         id="path9038"
         d="M286.191906364 305.339121818C286.191906364 305.339121818 356.909229356 305.339121818 361.234288398 305.339121818C362.241391389 305.339121818 362.876072312 307.563559686 362.900348445 311.455239804C363.067895142 338.314465474 363.990581139 480.694206232 364.006257254 483.207226874C364.006445096 483.23733966 364.0024932 483.252553636 363.994522111 483.252553636C363.574959202 483.252553636 292.130841854 483.252553636 287.832115613 483.252553636C286.817049619 483.252553636 286.191906364 481.010737413 286.191906364 477.090842934C286.191906364 449.83425627 286.191906364 305.339121818 286.191906364 305.339121818"
         style="opacity:1.0;stroke-opacity:1;fill-opacity:1.0;stroke:none;stroke-dasharray:none;stroke-miterlimit:4;stroke-width:1.875;fill:#989898" />
      <path
         id="path9040"
         d="M287.242758182 306.304810909C287.242758182 306.304810909 358.820564678 306.304810909 360.983094199 306.304810909C361.486645695 306.304810909 361.812465902 308.77640854 361.839439383 313.10049756C362.02560238 342.944081638 362.892077932 479.080303591 362.909495837 481.872548749C362.909704551 481.9060074 362.9077866 481.922911818 362.903801056 481.922911818C362.694019601 481.922911818 290.212225927 481.922911818 288.062862807 481.922911818C287.55532981 481.922911818 287.242758182 479.432004904 287.242758182 475.076566593C287.242758182 444.7914703 287.242758182 306.304810909 287.242758182 306.304810909"
         style="opacity:1.0;stroke-opacity:1;fill-opacity:1.0;stroke:none;stroke-dasharray:none;stroke-miterlimit:4;stroke-width:1.875;fill:#9e9e9e" />
      <path
         id="path9042"
         d="M288.29361 307.2705C288.29361 307.2705 360.7319 307.2705 360.7319 307.2705C360.7319 307.2705 360.748859492 309.989257394 360.778530322 314.745755316C360.983309618 347.573697802 361.793574725 477.46640095 361.812734421 480.537870623C361.812964006 480.57467514 361.81308 480.59327 361.81308 480.59327C361.81308 480.59327 288.29361 480.59327 288.29361 480.59327C288.29361 480.59327 288.29361 477.853272394 288.29361 473.062290252C288.29361 439.74868433 288.29361 307.2705 288.29361 307.2705"
         style="opacity:1.0;stroke-opacity:1;fill-opacity:1.0;stroke:none;stroke-dasharray:none;stroke-miterlimit:4;stroke-width:1.875;fill:#a4a4a4" />
    </g>
    <path
       sodipodi:nodetypes="sssssssss"
       inkscape:connector-curvature="0"
       id="rect5452"
       d="m 322.50002,269.50504 3.57142,0 c 11.67357,0 18.14819,9.76978 21.07143,21.07142 l 10.92227,42.22701 c 6.05405,23.4058 -20.32013,33.13013 -31.9937,33.13013 l -3.44515,0 c -11.67357,0 -38.87365,-9.23696 -32.43564,-33.31953 l 11.23794,-42.03761 c 3.01483,-11.27754 9.39786,-21.07142 21.07143,-21.07142 z"
       style="fill:#656565;fill-opacity:1;stroke:none;stroke-width:1;stroke-miterlimit:4;stroke-dasharray:none;stroke-opacity:1" />
    <path
       style="fill:#08158e;fill-opacity:1;stroke:none;stroke-width:1;stroke-miterlimit:4;stroke-dasharray:none;stroke-opacity:1"
       d="m 322.86861,276.18759 2.83421,0 c 9.26388,0 16.72182,7.45793 16.72182,16.72182 l 0,43.07994 c 0,9.26389 -7.45794,16.72182 -16.72182,16.72182 l -2.83421,0 c -9.26389,0 -16.72182,-7.45793 -16.72182,-16.72182 l 0,-43.07994 c 0,-9.26389 7.45793,-16.72182 16.72182,-16.72182 z"
       id="rect5452-8" />
    <path
       style="fill:#3f5dec;fill-opacity:1;stroke:none;stroke-width:0.72216362;stroke-miterlimit:4;stroke-dasharray:none;stroke-opacity:1"
       d="m 323.26235,291.46149 2.04676,0 c 6.69005,0 12.07589,5.38584 12.07589,12.07589 l 0,31.11076 c 0,6.69005 -5.38584,12.07589 -12.07589,12.07589 l -2.04676,0 c -6.69004,0 -12.07589,-5.38584 -12.07589,-12.07589 l 0,-31.11076 c 0,-6.69005 5.38585,-12.07589 12.07589,-12.07589 z"
       id="rect5452-8-1" />
    <path
       id="rect5454"
       d="m 290.71429,332.36218 67.14286,0 0,12.85715 -67.14286,0 z"
       style="fill:#656565;fill-opacity:1;stroke:none;stroke-width:1;stroke-miterlimit:4;stroke-dasharray:1, 1;stroke-dashoffset:0;stroke-opacity:1" />
    <path
       sodipodi:nodetypes="ccccc"
       inkscape:connector-curvature="0"
       id="rect5454-9"
       d="m 300.72511,335.89663 47.37418,0 0,6.16489 -47.37418,0 z"
       style="fill:#a4a4a4;fill-opacity:1;stroke:none;stroke-width:1;stroke-miterlimit:4;stroke-dasharray:1, 1;stroke-dashoffset:0;stroke-opacity:1" />
    <g
       id="g6332">
      <path
         style="opacity:1.0;stroke-opacity:1;fill-opacity:1.0;stroke:none;stroke-dasharray:none;stroke-miterlimit:4;stroke-width:1.0;fill:#08158e"
         d="M322.86861 276.18759C322.86861 276.18759 325.70282 276.18759 325.70282 276.18759C334.9667 276.18759 342.42464 283.64552 342.42464 292.90941C342.42464 292.90941 342.42464 335.98935 342.42464 335.98935C342.42464 345.25324 334.9667 352.71117 325.70282 352.71117C325.70282 352.71117 322.86861 352.71117 322.86861 352.71117C313.60472 352.71117 306.14679 345.25324 306.14679 335.98935C306.14679 335.98935 306.14679 292.90941 306.14679 292.90941C306.14679 283.64552 313.60472 276.18759 322.86861 276.18759C322.86861 276.18759 322.86861 276.18759 322.86861 276.18759"
         id="path6334" />
      <path
         style="opacity:1.0;stroke-opacity:1;fill-opacity:1.0;stroke:none;stroke-dasharray:none;stroke-miterlimit:4;stroke-width:1.0;fill:#0b1993"
         d="M322.89321875 277.14220875C322.89321875 277.14220875 325.678213125 277.14220875 325.678213125 277.14220875C334.78122875 277.14220875 342.1096625 284.470633125 342.1096625 293.573658125C342.1096625 293.573658125 342.1096625 335.905524375 342.1096625 335.905524375C342.1096625 345.008549375 334.78122875 352.33697375 325.678213125 352.33697375C325.678213125 352.33697375 322.89321875 352.33697375 322.89321875 352.33697375C313.790194375 352.33697375 306.461769375 345.008549375 306.461769375 335.905524375C306.461769375 335.905524375 306.461769375 293.573658125 306.461769375 293.573658125C306.461769375 284.470633125 313.790194375 277.14220875 322.89321875 277.14220875C322.89321875 277.14220875 322.89321875 277.14220875 322.89321875 277.14220875"
         id="path6336" />
      <path
         style="opacity:1.0;stroke-opacity:1;fill-opacity:1.0;stroke:none;stroke-dasharray:none;stroke-miterlimit:4;stroke-width:1.0;fill:#0e1e99"
         d="M322.9178275 278.0968275C322.9178275 278.0968275 325.65360625 278.0968275 325.65360625 278.0968275C334.5957575 278.0968275 341.794685 285.29574625 341.794685 294.23790625C341.794685 294.23790625 341.794685 335.82169875 341.794685 335.82169875C341.794685 344.76385875 334.5957575 351.9627775 325.65360625 351.9627775C325.65360625 351.9627775 322.9178275 351.9627775 322.9178275 351.9627775C313.97566875 351.9627775 306.77674875 344.76385875 306.77674875 335.82169875C306.77674875 335.82169875 306.77674875 294.23790625 306.77674875 294.23790625C306.77674875 285.29574625 313.97566875 278.0968275 322.9178275 278.0968275C322.9178275 278.0968275 322.9178275 278.0968275 322.9178275 278.0968275"
         id="path6338" />
      <path
         style="opacity:1.0;stroke-opacity:1;fill-opacity:1.0;stroke:none;stroke-dasharray:none;stroke-miterlimit:4;stroke-width:1.0;fill:#12229f"
         d="M322.94243625 279.05144625C322.94243625 279.05144625 325.628999375 279.05144625 325.628999375 279.05144625C334.41028625 279.05144625 341.4797075 286.120859375 341.4797075 294.902154375C341.4797075 294.902154375 341.4797075 335.737873125 341.4797075 335.737873125C341.4797075 344.519168125 334.41028625 351.58858125 325.628999375 351.58858125C325.628999375 351.58858125 322.94243625 351.58858125 322.94243625 351.58858125C314.161143125 351.58858125 307.091728125 344.519168125 307.091728125 335.737873125C307.091728125 335.737873125 307.091728125 294.902154375 307.091728125 294.902154375C307.091728125 286.120859375 314.161143125 279.05144625 322.94243625 279.05144625C322.94243625 279.05144625 322.94243625 279.05144625 322.94243625 279.05144625"
         id="path6340" />
      <path
         style="opacity:1.0;stroke-opacity:1;fill-opacity:1.0;stroke:none;stroke-dasharray:none;stroke-miterlimit:4;stroke-width:1.0;fill:#1527a5"
         d="M322.967045 280.006065C322.967045 280.006065 325.6043925 280.006065 325.6043925 280.006065C334.224815 280.006065 341.16473 286.9459725 341.16473 295.5664025C341.16473 295.5664025 341.16473 335.6540475 341.16473 335.6540475C341.16473 344.2744775 334.224815 351.214385 325.6043925 351.214385C325.6043925 351.214385 322.967045 351.214385 322.967045 351.214385C314.3466175 351.214385 307.4067075 344.2744775 307.4067075 335.6540475C307.4067075 335.6540475 307.4067075 295.5664025 307.4067075 295.5664025C307.4067075 286.9459725 314.3466175 280.006065 322.967045 280.006065C322.967045 280.006065 322.967045 280.006065 322.967045 280.006065"
         id="path6342" />
      <path
         style="opacity:1.0;stroke-opacity:1;fill-opacity:1.0;stroke:none;stroke-dasharray:none;stroke-miterlimit:4;stroke-width:1.0;fill:#192bab"
         d="M322.99165375 280.96068375C322.99165375 280.96068375 325.579785625 280.96068375 325.579785625 280.96068375C334.03934375 280.96068375 340.8497525 287.771085625 340.8497525 296.230650625C340.8497525 296.230650625 340.8497525 335.570221875 340.8497525 335.570221875C340.8497525 344.029786875 334.03934375 350.84018875 325.579785625 350.84018875C325.579785625 350.84018875 322.99165375 350.84018875 322.99165375 350.84018875C314.532091875 350.84018875 307.721686875 344.029786875 307.721686875 335.570221875C307.721686875 335.570221875 307.721686875 296.230650625 307.721686875 296.230650625C307.721686875 287.771085625 314.532091875 280.96068375 322.99165375 280.96068375C322.99165375 280.96068375 322.99165375 280.96068375 322.99165375 280.96068375"
         id="path6344" />
      <path
         style="opacity:1.0;stroke-opacity:1;fill-opacity:1.0;stroke:none;stroke-dasharray:none;stroke-miterlimit:4;stroke-width:1.0;fill:#1c30b1"
         d="M323.0162625 281.9153025C323.0162625 281.9153025 325.55517875 281.9153025 325.55517875 281.9153025C333.8538725 281.9153025 340.534775 288.59619875 340.534775 296.89489875C340.534775 296.89489875 340.534775 335.48639625 340.534775 335.48639625C340.534775 343.78509625 333.8538725 350.4659925 325.55517875 350.4659925C325.55517875 350.4659925 323.0162625 350.4659925 323.0162625 350.4659925C314.71756625 350.4659925 308.03666625 343.78509625 308.03666625 335.48639625C308.03666625 335.48639625 308.03666625 296.89489875 308.03666625 296.89489875C308.03666625 288.59619875 314.71756625 281.9153025 323.0162625 281.9153025C323.0162625 281.9153025 323.0162625 281.9153025 323.0162625 281.9153025"
         id="path6346" />
      <path
         style="opacity:1.0;stroke-opacity:1;fill-opacity:1.0;stroke:none;stroke-dasharray:none;stroke-miterlimit:4;stroke-width:1.0;fill:#2034b7"
         d="M323.04087125 282.86992125C323.04087125 282.86992125 325.530571875 282.86992125 325.530571875 282.86992125C333.66840125 282.86992125 340.2197975 289.421311875 340.2197975 297.559146875C340.2197975 297.559146875 340.2197975 335.402570625 340.2197975 335.402570625C340.2197975 343.540405625 333.66840125 350.09179625 325.530571875 350.09179625C325.530571875 350.09179625 323.04087125 350.09179625 323.04087125 350.09179625C314.903040625 350.09179625 308.351645625 343.540405625 308.351645625 335.402570625C308.351645625 335.402570625 308.351645625 297.559146875 308.351645625 297.559146875C308.351645625 289.421311875 314.903040625 282.86992125 323.04087125 282.86992125C323.04087125 282.86992125 323.04087125 282.86992125 323.04087125 282.86992125"
         id="path6348" />
      <path
         style="opacity:1.0;stroke-opacity:1;fill-opacity:1.0;stroke:none;stroke-dasharray:none;stroke-miterlimit:4;stroke-width:1.0;fill:#2339bd"
         d="M323.06548 283.82454C323.06548 283.82454 325.505965 283.82454 325.505965 283.82454C333.48293 283.82454 339.90482 290.246425 339.90482 298.223395C339.90482 298.223395 339.90482 335.318745 339.90482 335.318745C339.90482 343.295715 333.48293 349.7176 325.505965 349.7176C325.505965 349.7176 323.06548 349.7176 323.06548 349.7176C315.088515 349.7176 308.666625 343.295715 308.666625 335.318745C308.666625 335.318745 308.666625 298.223395 308.666625 298.223395C308.666625 290.246425 315.088515 283.82454 323.06548 283.82454C323.06548 283.82454 323.06548 283.82454 323.06548 283.82454"
         id="path6350" />
      <path
         style="opacity:1.0;stroke-opacity:1;fill-opacity:1.0;stroke:none;stroke-dasharray:none;stroke-miterlimit:4;stroke-width:1.0;fill:#263dc2"
         d="M323.09008875 284.77915875C323.09008875 284.77915875 325.481358125 284.77915875 325.481358125 284.77915875C333.29745875 284.77915875 339.5898425 291.071538125 339.5898425 298.887643125C339.5898425 298.887643125 339.5898425 335.234919375 339.5898425 335.234919375C339.5898425 343.051024375 333.29745875 349.34340375 325.481358125 349.34340375C325.481358125 349.34340375 323.09008875 349.34340375 323.09008875 349.34340375C315.273989375 349.34340375 308.981604375 343.051024375 308.981604375 335.234919375C308.981604375 335.234919375 308.981604375 298.887643125 308.981604375 298.887643125C308.981604375 291.071538125 315.273989375 284.77915875 323.09008875 284.77915875C323.09008875 284.77915875 323.09008875 284.77915875 323.09008875 284.77915875"
         id="path6352" />
      <path
         style="opacity:1.0;stroke-opacity:1;fill-opacity:1.0;stroke:none;stroke-dasharray:none;stroke-miterlimit:4;stroke-width:1.0;fill:#2a42c8"
         d="M323.1146975 285.7337775C323.1146975 285.7337775 325.45675125 285.7337775 325.45675125 285.7337775C333.1119875 285.7337775 339.274865 291.89665125 339.274865 299.55189125C339.274865 299.55189125 339.274865 335.15109375 339.274865 335.15109375C339.274865 342.80633375 333.1119875 348.9692075 325.45675125 348.9692075C325.45675125 348.9692075 323.1146975 348.9692075 323.1146975 348.9692075C315.45946375 348.9692075 309.29658375 342.80633375 309.29658375 335.15109375C309.29658375 335.15109375 309.29658375 299.55189125 309.29658375 299.55189125C309.29658375 291.89665125 315.45946375 285.7337775 323.1146975 285.7337775C323.1146975 285.7337775 323.1146975 285.7337775 323.1146975 285.7337775"
         id="path6354" />
      <path
         style="opacity:1.0;stroke-opacity:1;fill-opacity:1.0;stroke:none;stroke-dasharray:none;stroke-miterlimit:4;stroke-width:1.0;fill:#2d46ce"
         d="M323.13930625 286.68839625C323.13930625 286.68839625 325.432144375 286.68839625 325.432144375 286.68839625C332.92651625 286.68839625 338.9598875 292.721764375 338.9598875 300.216139375C338.9598875 300.216139375 338.9598875 335.067268125 338.9598875 335.067268125C338.9598875 342.561643125 332.92651625 348.59501125 325.432144375 348.59501125C325.432144375 348.59501125 323.13930625 348.59501125 323.13930625 348.59501125C315.644938125 348.59501125 309.611563125 342.561643125 309.611563125 335.067268125C309.611563125 335.067268125 309.611563125 300.216139375 309.611563125 300.216139375C309.611563125 292.721764375 315.644938125 286.68839625 323.13930625 286.68839625C323.13930625 286.68839625 323.13930625 286.68839625 323.13930625 286.68839625"
         id="path6356" />
      <path
         style="opacity:1.0;stroke-opacity:1;fill-opacity:1.0;stroke:none;stroke-dasharray:none;stroke-miterlimit:4;stroke-width:1.0;fill:#314bd4"
         d="M323.163915 287.643015C323.163915 287.643015 325.4075375 287.643015 325.4075375 287.643015C332.741045 287.643015 338.64491 293.5468775 338.64491 300.8803875C338.64491 300.8803875 338.64491 334.9834425 338.64491 334.9834425C338.64491 342.3169525 332.741045 348.220815 325.4075375 348.220815C325.4075375 348.220815 323.163915 348.220815 323.163915 348.220815C315.8304125 348.220815 309.9265425 342.3169525 309.9265425 334.9834425C309.9265425 334.9834425 309.9265425 300.8803875 309.9265425 300.8803875C309.9265425 293.5468775 315.8304125 287.643015 323.163915 287.643015C323.163915 287.643015 323.163915 287.643015 323.163915 287.643015"
         id="path6358" />
      <path
         style="opacity:1.0;stroke-opacity:1;fill-opacity:1.0;stroke:none;stroke-dasharray:none;stroke-miterlimit:4;stroke-width:1.0;fill:#344fda"
         d="M323.18852375 288.59763375C323.18852375 288.59763375 325.382930625 288.59763375 325.382930625 288.59763375C332.55557375 288.59763375 338.3299325 294.371990625 338.3299325 301.544635625C338.3299325 301.544635625 338.3299325 334.899616875 338.3299325 334.899616875C338.3299325 342.072261875 332.55557375 347.84661875 325.382930625 347.84661875C325.382930625 347.84661875 323.18852375 347.84661875 323.18852375 347.84661875C316.015886875 347.84661875 310.241521875 342.072261875 310.241521875 334.899616875C310.241521875 334.899616875 310.241521875 301.544635625 310.241521875 301.544635625C310.241521875 294.371990625 316.015886875 288.59763375 323.18852375 288.59763375C323.18852375 288.59763375 323.18852375 288.59763375 323.18852375 288.59763375"
         id="path6360" />
      <path
         style="opacity:1.0;stroke-opacity:1;fill-opacity:1.0;stroke:none;stroke-dasharray:none;stroke-miterlimit:4;stroke-width:1.0;fill:#3854e0"
         d="M323.2131325 289.5522525C323.2131325 289.5522525 325.35832375 289.5522525 325.35832375 289.5522525C332.3701025 289.5522525 338.014955 295.19710375 338.014955 302.20888375C338.014955 302.20888375 338.014955 334.81579125 338.014955 334.81579125C338.014955 341.82757125 332.3701025 347.4724225 325.35832375 347.4724225C325.35832375 347.4724225 323.2131325 347.4724225 323.2131325 347.4724225C316.20136125 347.4724225 310.55650125 341.82757125 310.55650125 334.81579125C310.55650125 334.81579125 310.55650125 302.20888375 310.55650125 302.20888375C310.55650125 295.19710375 316.20136125 289.5522525 323.2131325 289.5522525C323.2131325 289.5522525 323.2131325 289.5522525 323.2131325 289.5522525"
         id="path6362" />
      <path
         style="opacity:1.0;stroke-opacity:1;fill-opacity:1.0;stroke:none;stroke-dasharray:none;stroke-miterlimit:4;stroke-width:1.0;fill:#3b58e6"
         d="M323.23774125 290.50687125C323.23774125 290.50687125 325.333716875 290.50687125 325.333716875 290.50687125C332.18463125 290.50687125 337.6999775 296.022216875 337.6999775 302.873131875C337.6999775 302.873131875 337.6999775 334.731965625 337.6999775 334.731965625C337.6999775 341.582880625 332.18463125 347.09822625 325.333716875 347.09822625C325.333716875 347.09822625 323.23774125 347.09822625 323.23774125 347.09822625C316.386835625 347.09822625 310.871480625 341.582880625 310.871480625 334.731965625C310.871480625 334.731965625 310.871480625 302.873131875 310.871480625 302.873131875C310.871480625 296.022216875 316.386835625 290.50687125 323.23774125 290.50687125C323.23774125 290.50687125 323.23774125 290.50687125 323.23774125 290.50687125"
         id="path6364" />
      <path
         style="opacity:1.0;stroke-opacity:1;fill-opacity:1.0;stroke:none;stroke-dasharray:none;stroke-miterlimit:4;stroke-width:1.0;fill:#3f5dec"
         d="M323.26235 291.46149C323.26235 291.46149 325.30911 291.46149 325.30911 291.46149C331.99916 291.46149 337.385 296.84733 337.385 303.53738C337.385 303.53738 337.385 334.64814 337.385 334.64814C337.385 341.33819 331.99916 346.72403 325.30911 346.72403C325.30911 346.72403 323.26235 346.72403 323.26235 346.72403C316.57231 346.72403 311.18646 341.33819 311.18646 334.64814C311.18646 334.64814 311.18646 303.53738 311.18646 303.53738C311.18646 296.84733 316.57231 291.46149 323.26235 291.46149C323.26235 291.46149 323.26235 291.46149 323.26235 291.46149"
         id="path6366" />
    </g>
    <path
       sodipodi:nodetypes="ccccc"
       inkscape:connector-curvature="0"
       id="rect5456-4-5"
       d="m 301.75937,302.24676 45.6777,0 0,10.28777 -45.6777,0 z"
       style="fill:#656565;fill-opacity:1;stroke:none;stroke-width:1;stroke-miterlimit:4;stroke-dasharray:none;stroke-opacity:1" />
    <path
       sodipodi:nodetypes="ccccc"
       inkscape:connector-curvature="0"
       id="rect5456-4"
       d="m 308.94688,304.3896 29.51698,0 0,5.49874 -29.51698,0 z"
       style="fill:#a4a4a4;fill-opacity:1;stroke:none;stroke-width:1;stroke-miterlimit:4;stroke-dasharray:none;stroke-opacity:1" />
    <rect
       style="fill:#657cf0;fill-opacity:0.48287672;stroke:none;stroke-width:1;stroke-miterlimit:4;stroke-dasharray:none;stroke-dashoffset:0;stroke-opacity:1"
       id="rect9142"
       width="16.162439"
       height="64.649765"
       x="315.9252"
       y="279.84802"
       ry="6.816812" />
    <g
       id="g8585">
      <path
         id="path8587"
         d="M301.75937 302.24676C301.75937 302.24676 347.43707 302.24676 347.43707 302.24676C347.43707 302.24676 347.43707 302.84170088 347.43707 303.74544164C347.43707 306.599794438 347.43707 312.53453 347.43707 312.53453C347.43707 312.53453 301.75937 312.53453 301.75937 312.53453C301.75937 312.53453 301.75937 311.93958912 301.75937 311.03584836C301.75937 308.181495562 301.75937 302.24676 301.75937 302.24676"
         style="opacity:1.0;stroke-opacity:1;fill-opacity:1.0;stroke:none;stroke-dasharray:none;stroke-miterlimit:4;stroke-width:1.0;fill:#656565" />
      <path
         id="path8589"
         d="M302.41278 302.441563636C302.41278 302.441563636 346.078709383 302.441563636 346.5360224 302.441563636C346.590709962 302.441563636 346.621323636 302.982418982 346.621323636 303.804001491C346.621323636 306.39886767 346.621323636 312.293967273 346.621323636 312.293967273C346.621323636 312.293967273 302.955394253 312.293967273 302.498081236 312.293967273C302.443393674 312.293967273 302.41278 311.753111927 302.41278 310.931529418C302.41278 308.336663239 302.41278 302.441563636 302.41278 302.441563636"
         style="opacity:1.0;stroke-opacity:1;fill-opacity:1.0;stroke:none;stroke-dasharray:none;stroke-miterlimit:4;stroke-width:1.0;fill:#6a6a6a" />
      <path
         id="path8591"
         d="M303.06619 302.636367273C303.06619 302.636367273 344.720348766 302.636367273 345.634974801 302.636367273C345.744349925 302.636367273 345.805577273 303.123137084 345.805577273 303.862561342C345.805577273 306.197940903 345.805577273 312.053404545 345.805577273 312.053404545C345.805577273 312.053404545 304.151418507 312.053404545 303.236792472 312.053404545C303.127417348 312.053404545 303.06619 311.566634735 303.06619 310.827210476C303.06619 308.491830915 303.06619 302.636367273 303.06619 302.636367273"
         style="opacity:1.0;stroke-opacity:1;fill-opacity:1.0;stroke:none;stroke-dasharray:none;stroke-miterlimit:4;stroke-width:1.0;fill:#707070" />
      <path
         id="path8593"
         d="M303.7196 302.831170909C303.7196 302.831170909 343.361988149 302.831170909 344.733927201 302.831170909C344.897989887 302.831170909 344.989830909 303.263855185 344.989830909 303.921121193C344.989830909 305.997014136 344.989830909 311.812841818 344.989830909 311.812841818C344.989830909 311.812841818 305.34744276 311.812841818 303.975503708 311.812841818C303.811441022 311.812841818 303.7196 311.380157542 303.7196 310.722891534C303.7196 308.646998591 303.7196 302.831170909 303.7196 302.831170909"
         style="opacity:1.0;stroke-opacity:1;fill-opacity:1.0;stroke:none;stroke-dasharray:none;stroke-miterlimit:4;stroke-width:1.0;fill:#767676" />
      <path
         id="path8595"
         d="M304.37301 303.025974545C304.37301 303.025974545 342.003627532 303.025974545 343.832879602 303.025974545C344.051629849 303.025974545 344.174084545 303.404573287 344.174084545 303.979681044C344.174084545 305.796087369 344.174084545 311.572279091 344.174084545 311.572279091C344.174084545 311.572279091 306.543467013 311.572279091 304.714214944 311.572279091C304.495464696 311.572279091 304.37301 311.193680349 304.37301 310.618572593C304.37301 308.802166267 304.37301 303.025974545 304.37301 303.025974545"
         style="opacity:1.0;stroke-opacity:1;fill-opacity:1.0;stroke:none;stroke-dasharray:none;stroke-miterlimit:4;stroke-width:1.0;fill:#7b7b7b" />
      <path
         id="path8597"
         d="M305.02642 303.220778182C305.02642 303.220778182 340.645266915 303.220778182 342.931832002 303.220778182C343.205269811 303.220778182 343.358338182 303.545291389 343.358338182 304.038240895C343.358338182 305.595160602 343.358338182 311.331716364 343.358338182 311.331716364C343.358338182 311.331716364 307.739491267 311.331716364 305.45292618 311.331716364C305.179488371 311.331716364 305.02642 311.007203156 305.02642 310.514253651C305.02642 308.957333943 305.02642 303.220778182 305.02642 303.220778182"
         style="opacity:1.0;stroke-opacity:1;fill-opacity:1.0;stroke:none;stroke-dasharray:none;stroke-miterlimit:4;stroke-width:1.0;fill:#818181" />
      <path
         id="path8599"
         d="M305.67983 303.415581818C305.67983 303.415581818 339.286906298 303.415581818 342.030784402 303.415581818C342.358909774 303.415581818 342.542591818 303.686009491 342.542591818 304.096800746C342.542591818 305.394233835 342.542591818 311.091153636 342.542591818 311.091153636C342.542591818 311.091153636 308.93551552 311.091153636 306.191637416 311.091153636C305.863512045 311.091153636 305.67983 310.820725964 305.67983 310.409934709C305.67983 309.112501619 305.67983 303.415581818 305.67983 303.415581818"
         style="opacity:1.0;stroke-opacity:1;fill-opacity:1.0;stroke:none;stroke-dasharray:none;stroke-miterlimit:4;stroke-width:1.0;fill:#878787" />
      <path
         id="path8601"
         d="M306.33324 303.610385455C306.33324 303.610385455 337.928545681 303.610385455 341.129736803 303.610385455C341.512549736 303.610385455 341.726845455 303.826727593 341.726845455 304.155360596C341.726845455 305.193307068 341.726845455 310.850590909 341.726845455 310.850590909C341.726845455 310.850590909 310.131539774 310.850590909 306.930348652 310.850590909C306.547535719 310.850590909 306.33324 310.634248771 306.33324 310.305615767C306.33324 309.267669295 306.33324 303.610385455 306.33324 303.610385455"
         style="opacity:1.0;stroke-opacity:1;fill-opacity:1.0;stroke:none;stroke-dasharray:none;stroke-miterlimit:4;stroke-width:1.0;fill:#8d8d8d" />
      <path
         id="path8603"
         d="M306.98665 303.805189091C306.98665 303.805189091 336.570185064 303.805189091 340.228689203 303.805189091C340.666189698 303.805189091 340.911099091 303.967445695 340.911099091 304.213920447C340.911099091 304.992380301 340.911099091 310.610028182 340.911099091 310.610028182C340.911099091 310.610028182 311.327564027 310.610028182 307.669059888 310.610028182C307.231559393 310.610028182 306.98665 310.447771578 306.98665 310.201296825C306.98665 309.422836972 306.98665 303.805189091 306.98665 303.805189091"
         style="opacity:1.0;stroke-opacity:1;fill-opacity:1.0;stroke:none;stroke-dasharray:none;stroke-miterlimit:4;stroke-width:1.0;fill:#929292" />
      <path
         id="path8605"
         d="M307.64006 303.999992727C307.64006 303.999992727 335.211824447 303.999992727 339.327641603 303.999992727C339.81982966 303.999992727 340.095352727 304.108163796 340.095352727 304.272480298C340.095352727 304.791453534 340.095352727 310.369465455 340.095352727 310.369465455C340.095352727 310.369465455 312.52358828 310.369465455 308.407771124 310.369465455C307.915583067 310.369465455 307.64006 310.261294385 307.64006 310.096977884C307.64006 309.578004648 307.64006 303.999992727 307.64006 303.999992727"
         style="opacity:1.0;stroke-opacity:1;fill-opacity:1.0;stroke:none;stroke-dasharray:none;stroke-miterlimit:4;stroke-width:1.0;fill:#989898" />
      <path
         id="path8607"
         d="M308.29347 304.194796364C308.29347 304.194796364 333.85346383 304.194796364 338.426594004 304.194796364C338.973469623 304.194796364 339.279606364 304.248881898 339.279606364 304.331040149C339.279606364 304.590526767 339.279606364 310.128902727 339.279606364 310.128902727C339.279606364 310.128902727 313.719612534 310.128902727 309.14648236 310.128902727C308.599606741 310.128902727 308.29347 310.074817193 308.29347 309.992658942C308.29347 309.733172324 308.29347 304.194796364 308.29347 304.194796364"
         style="opacity:1.0;stroke-opacity:1;fill-opacity:1.0;stroke:none;stroke-dasharray:none;stroke-miterlimit:4;stroke-width:1.0;fill:#9e9e9e" />
      <path
         id="path8609"
         d="M308.94688 304.3896C308.94688 304.3896 332.495103213 304.3896 337.525546404 304.3896C338.127109585 304.3896 338.46386 304.3896 338.46386 304.3896C338.46386 304.3896 338.46386 309.88834 338.46386 309.88834C338.46386 309.88834 314.915636787 309.88834 309.885193596 309.88834C309.283630415 309.88834 308.94688 309.88834 308.94688 309.88834C308.94688 309.88834 308.94688 304.3896 308.94688 304.3896"
         style="opacity:1.0;stroke-opacity:1;fill-opacity:1.0;stroke:none;stroke-dasharray:none;stroke-miterlimit:4;stroke-width:1.0;fill:#a4a4a4" />
    </g>
    <g
       id="g8792">
      <path
         style="opacity:1.0;stroke-opacity:1;fill-opacity:1.0;stroke-dashoffset:0;stroke:none;stroke-dasharray:1, 1;stroke-miterlimit:4;stroke-width:1.0;fill:#656565"
         d="M290.71429 332.36218C290.71429 332.36218 357.85715 332.36218 357.85715 332.36218C357.85715 332.36218 357.85715 333.949068463 357.85715 336.007839285C357.85715 339.809197226 357.85715 345.21933 357.85715 345.21933C357.85715 345.21933 290.71429 345.21933 290.71429 345.21933C290.71429 345.21933 290.71429 343.632441537 290.71429 341.573670715C290.71429 337.772312774 290.71429 332.36218 290.71429 332.36218"
         id="path8794" />
      <path
         style="opacity:1.0;stroke-opacity:1;fill-opacity:1.0;stroke-dashoffset:0;stroke:none;stroke-dasharray:1, 1;stroke-miterlimit:4;stroke-width:1.0;fill:#6a6a6a"
         d="M291.624364545 332.683493636C291.624364545 332.683493636 355.867504451 332.683493636 356.748340017 332.683493636C356.888705266 332.683493636 356.970071818 334.126119511 356.970071818 335.99772935C356.970071818 339.453509296 356.970071818 344.932256364 356.970071818 344.932256364C356.970071818 344.932256364 292.726931913 344.932256364 291.846096347 344.932256364C291.705731098 344.932256364 291.624364545 343.489630489 291.624364545 341.61802065C291.624364545 338.162240704 291.624364545 332.683493636 291.624364545 332.683493636"
         id="path8796" />
      <path
         style="opacity:1.0;stroke-opacity:1;fill-opacity:1.0;stroke-dashoffset:0;stroke:none;stroke-dasharray:1, 1;stroke-miterlimit:4;stroke-width:1.0;fill:#707070"
         d="M292.534439091 333.004807273C292.534439091 333.004807273 353.877858902 333.004807273 355.639530034 333.004807273C355.920260532 333.004807273 356.082993636 334.30317056 356.082993636 335.987619415C356.082993636 339.097821367 356.082993636 344.645182727 356.082993636 344.645182727C356.082993636 344.645182727 294.739573825 344.645182727 292.977902693 344.645182727C292.697172196 344.645182727 292.534439091 343.34681944 292.534439091 341.662370585C292.534439091 338.552168633 292.534439091 333.004807273 292.534439091 333.004807273"
         id="path8798" />
      <path
         style="opacity:1.0;stroke-opacity:1;fill-opacity:1.0;stroke-dashoffset:0;stroke:none;stroke-dasharray:1, 1;stroke-miterlimit:4;stroke-width:1.0;fill:#767676"
         d="M293.444513636 333.326120909C293.444513636 333.326120909 351.888213353 333.326120909 354.530720051 333.326120909C354.951815798 333.326120909 355.195915455 334.480221609 355.195915455 335.97750948C355.195915455 338.742133437 355.195915455 344.358109091 355.195915455 344.358109091C355.195915455 344.358109091 296.752215738 344.358109091 294.10970904 344.358109091C293.688613293 344.358109091 293.444513636 343.204008391 293.444513636 341.70672052C293.444513636 338.942096563 293.444513636 333.326120909 293.444513636 333.326120909"
         id="path8800" />
      <path
         style="opacity:1.0;stroke-opacity:1;fill-opacity:1.0;stroke-dashoffset:0;stroke:none;stroke-dasharray:1, 1;stroke-miterlimit:4;stroke-width:1.0;fill:#7b7b7b"
         d="M294.354588182 333.647434545C294.354588182 333.647434545 349.898567804 333.647434545 353.421910068 333.647434545C353.983371063 333.647434545 354.308837273 334.657272658 354.308837273 335.967399545C354.308837273 338.386445507 354.308837273 344.071035455 354.308837273 344.071035455C354.308837273 344.071035455 298.764857651 344.071035455 295.241515386 344.071035455C294.680054391 344.071035455 294.354588182 343.061197342 294.354588182 341.751070455C294.354588182 339.332024493 294.354588182 333.647434545 294.354588182 333.647434545"
         id="path8802" />
      <path
         style="opacity:1.0;stroke-opacity:1;fill-opacity:1.0;stroke-dashoffset:0;stroke:none;stroke-dasharray:1, 1;stroke-miterlimit:4;stroke-width:1.0;fill:#818181"
         d="M295.264662727 333.968748182C295.264662727 333.968748182 347.908922255 333.968748182 352.313100086 333.968748182C353.014926329 333.968748182 353.421759091 334.834323707 353.421759091 335.95728961C353.421759091 338.030757578 353.421759091 343.783961818 353.421759091 343.783961818C353.421759091 343.783961818 300.777499563 343.783961818 296.373321733 343.783961818C295.671495489 343.783961818 295.264662727 342.918386293 295.264662727 341.79542039C295.264662727 339.721952422 295.264662727 333.968748182 295.264662727 333.968748182"
         id="path8804" />
      <path
         style="opacity:1.0;stroke-opacity:1;fill-opacity:1.0;stroke-dashoffset:0;stroke:none;stroke-dasharray:1, 1;stroke-miterlimit:4;stroke-width:1.0;fill:#878787"
         d="M296.174737273 334.290061818C296.174737273 334.290061818 345.919276706 334.290061818 351.204290103 334.290061818C352.046481595 334.290061818 352.534680909 335.011374756 352.534680909 335.947179675C352.534680909 337.675069648 352.534680909 343.496888182 352.534680909 343.496888182C352.534680909 343.496888182 302.790141476 343.496888182 297.505128079 343.496888182C296.662936587 343.496888182 296.174737273 342.775575244 296.174737273 341.839770325C296.174737273 340.111880352 296.174737273 334.290061818 296.174737273 334.290061818"
         id="path8806" />
      <path
         style="opacity:1.0;stroke-opacity:1;fill-opacity:1.0;stroke-dashoffset:0;stroke:none;stroke-dasharray:1, 1;stroke-miterlimit:4;stroke-width:1.0;fill:#8d8d8d"
         d="M297.084811818 334.611375455C297.084811818 334.611375455 343.929631157 334.611375455 350.09548012 334.611375455C351.078036861 334.611375455 351.647602727 335.188425805 351.647602727 335.93706974C351.647602727 337.319381718 351.647602727 343.209814545 351.647602727 343.209814545C351.647602727 343.209814545 304.802783389 343.209814545 298.636934426 343.209814545C297.654377685 343.209814545 297.084811818 342.632764195 297.084811818 341.88412026C297.084811818 340.501808282 297.084811818 334.611375455 297.084811818 334.611375455"
         id="path8808" />
      <path
         style="opacity:1.0;stroke-opacity:1;fill-opacity:1.0;stroke-dashoffset:0;stroke:none;stroke-dasharray:1, 1;stroke-miterlimit:4;stroke-width:1.0;fill:#929292"
         d="M297.994886364 334.932689091C297.994886364 334.932689091 341.939985608 334.932689091 348.986670137 334.932689091C350.109592127 334.932689091 350.760524545 335.365476853 350.760524545 335.926959805C350.760524545 336.963693789 350.760524545 342.922740909 350.760524545 342.922740909C350.760524545 342.922740909 306.815425302 342.922740909 299.768740772 342.922740909C298.645818782 342.922740909 297.994886364 342.489953147 297.994886364 341.928470195C297.994886364 340.891736211 297.994886364 334.932689091 297.994886364 334.932689091"
         id="path8810" />
      <path
         style="opacity:1.0;stroke-opacity:1;fill-opacity:1.0;stroke-dashoffset:0;stroke:none;stroke-dasharray:1, 1;stroke-miterlimit:4;stroke-width:1.0;fill:#989898"
         d="M298.904960909 335.254002727C298.904960909 335.254002727 339.950340059 335.254002727 347.877860154 335.254002727C349.141147393 335.254002727 349.873446364 335.542527902 349.873446364 335.91684987C349.873446364 336.608005859 349.873446364 342.635667273 349.873446364 342.635667273C349.873446364 342.635667273 308.828067214 342.635667273 300.900547119 342.635667273C299.63725988 342.635667273 298.904960909 342.347142098 298.904960909 341.97282013C298.904960909 341.281664141 298.904960909 335.254002727 298.904960909 335.254002727"
         id="path8812" />
      <path
         style="opacity:1.0;stroke-opacity:1;fill-opacity:1.0;stroke-dashoffset:0;stroke:none;stroke-dasharray:1, 1;stroke-miterlimit:4;stroke-width:1.0;fill:#9e9e9e"
         d="M299.815035455 335.575316364C299.815035455 335.575316364 337.960694509 335.575316364 346.769050171 335.575316364C348.172702658 335.575316364 348.986368182 335.719578951 348.986368182 335.906739935C348.986368182 336.25231793 348.986368182 342.348593636 348.986368182 342.348593636C348.986368182 342.348593636 310.840709127 342.348593636 302.032353465 342.348593636C300.628700978 342.348593636 299.815035455 342.204331049 299.815035455 342.017170065C299.815035455 341.67159207 299.815035455 335.575316364 299.815035455 335.575316364"
         id="path8814" />
      <path
         style="opacity:1.0;stroke-opacity:1;fill-opacity:1.0;stroke-dashoffset:0;stroke:none;stroke-dasharray:1, 1;stroke-miterlimit:4;stroke-width:1.0;fill:#a4a4a4"
         d="M300.72511 335.89663C300.72511 335.89663 335.97104896 335.89663 345.660240188 335.89663C347.204257924 335.89663 348.09929 335.89663 348.09929 335.89663C348.09929 335.89663 348.09929 342.06152 348.09929 342.06152C348.09929 342.06152 312.85335104 342.06152 303.164159812 342.06152C301.620142076 342.06152 300.72511 342.06152 300.72511 342.06152C300.72511 342.06152 300.72511 335.89663 300.72511 335.89663"
         id="path8816" />
    </g>
    <rect
       rx="0"
       y="302.26077"
       x="306.26562"
       height="1.5152289"
       width="36.176086"
       id="rect8914"
       style="fill:#bbbbbb;fill-opacity:1;stroke:none;stroke-width:1;stroke-miterlimit:4;stroke-dasharray:none;stroke-dashoffset:0;stroke-opacity:1" />
    <rect
       rx="0"
       y="332.24969"
       x="306.23407"
       height="1.5152289"
       width="36.176086"
       id="rect8914-0"
       style="fill:#bbbbbb;fill-opacity:1;stroke:none;stroke-width:1;stroke-miterlimit:4;stroke-dasharray:none;stroke-dashoffset:0;stroke-opacity:1" />
    <ellipse
       style="fill:#9baaf5;fill-opacity:0.63698629;stroke:none;stroke-width:1;stroke-miterlimit:4;stroke-dasharray:none;stroke-dashoffset:0;stroke-opacity:1"
       id="path9144"
       cx="324.15179"
       cy="283.90518"
       rx="7.1875"
       ry="4.0429688" />
    <ellipse
       style="fill:#d8ddfc;fill-opacity:0.9349315;stroke:none;stroke-width:1;stroke-miterlimit:4;stroke-dasharray:none;stroke-dashoffset:0;stroke-opacity:1"
       id="path9146"
       cx="324.09366"
       cy="283.44604"
       rx="3.5937502"
       ry="2.0125" />
  </g>
</svg>
